<svg width="98" height="19" viewBox="0 0 98 19" fill="none" xmlns="http://www.w3.org/2000/svg">
<g id="_Rate">
<g id="star-active 5">
<path id="Vector" d="M89.4323 4.3376C89.2978 4.05833 89.0134 3.88062 88.7012 3.88062C88.3889 3.88062 88.1071 4.05833 87.97 4.3376L86.3376 7.6964L82.692 8.23462C82.3873 8.28032 82.1334 8.49358 82.0395 8.78553C81.9456 9.07749 82.0217 9.39992 82.2401 9.61572L84.8854 12.2332L84.2609 15.9322C84.2101 16.2368 84.3371 16.5466 84.5884 16.7268C84.8397 16.9071 85.1723 16.9299 85.4465 16.7852L88.7037 15.0462L91.9609 16.7852C92.2351 16.9299 92.5677 16.9096 92.819 16.7268C93.0703 16.544 93.1973 16.2368 93.1465 15.9322L92.5194 12.2332L95.1648 9.61572C95.3831 9.39992 95.4618 9.07749 95.3654 8.78553C95.2689 8.49358 95.0176 8.28032 94.7129 8.23462L91.0647 7.6964L89.4323 4.3376Z" fill="#E3E3E3"/>
</g>
<g id="star-active 4">
<path id="Vector_2" d="M69.4323 4.3376C69.2978 4.05833 69.0134 3.88062 68.7012 3.88062C68.3889 3.88062 68.1071 4.05833 67.97 4.3376L66.3376 7.6964L62.692 8.23462C62.3873 8.28032 62.1334 8.49358 62.0395 8.78553C61.9456 9.07749 62.0217 9.39992 62.2401 9.61572L64.8854 12.2332L64.2609 15.9322C64.2101 16.2368 64.3371 16.5466 64.5884 16.7268C64.8397 16.9071 65.1723 16.9299 65.4465 16.7852L68.7037 15.0462L71.9609 16.7852C72.2351 16.9299 72.5677 16.9096 72.819 16.7268C73.0703 16.544 73.1973 16.2368 73.1465 15.9322L72.5194 12.2332L75.1648 9.61572C75.3831 9.39992 75.4618 9.07749 75.3654 8.78553C75.2689 8.49358 75.0176 8.28032 74.7129 8.23462L71.0647 7.6964L69.4323 4.3376Z" fill="#E3E3E3"/>
</g>
<g id="star-active 3">
<path id="Vector_3" d="M49.4323 4.3376C49.2978 4.05833 49.0134 3.88062 48.7012 3.88062C48.3889 3.88062 48.1071 4.05833 47.97 4.3376L46.3376 7.6964L42.692 8.23462C42.3873 8.28032 42.1334 8.49358 42.0395 8.78553C41.9456 9.07749 42.0217 9.39992 42.2401 9.61572L44.8854 12.2332L44.2609 15.9322C44.2101 16.2368 44.3371 16.5466 44.5884 16.7268C44.8397 16.9071 45.1723 16.9299 45.4465 16.7852L48.7037 15.0462L51.9609 16.7852C52.2351 16.9299 52.5677 16.9096 52.819 16.7268C53.0703 16.544 53.1973 16.2368 53.1465 15.9322L52.5194 12.2332L55.1648 9.61572C55.3831 9.39992 55.4618 9.07749 55.3654 8.78553C55.2689 8.49358 55.0176 8.28032 54.7129 8.23462L51.0647 7.6964L49.4323 4.3376Z" fill="#FF6060"/>
</g>
<g id="star-active 2">
<path id="Vector_4" d="M29.4323 4.3376C29.2978 4.05833 29.0134 3.88062 28.7012 3.88062C28.3889 3.88062 28.1071 4.05833 27.97 4.3376L26.3376 7.6964L22.692 8.23462C22.3873 8.28032 22.1334 8.49358 22.0395 8.78553C21.9456 9.07749 22.0217 9.39992 22.2401 9.61572L24.8854 12.2332L24.2609 15.9322C24.2101 16.2368 24.3371 16.5466 24.5884 16.7268C24.8397 16.9071 25.1723 16.9299 25.4465 16.7852L28.7037 15.0462L31.9609 16.7852C32.2351 16.9299 32.5677 16.9096 32.819 16.7268C33.0703 16.544 33.1973 16.2368 33.1465 15.9322L32.5194 12.2332L35.1648 9.61572C35.3831 9.39992 35.4618 9.07749 35.3654 8.78553C35.2689 8.49358 35.0176 8.28032 34.7129 8.23462L31.0647 7.6964L29.4323 4.3376Z" fill="#FF6060"/>
</g>
<g id="star-active 1">
<path id="Vector_5" d="M9.43233 4.3376C9.29777 4.05833 9.01344 3.88062 8.70117 3.88062C8.38891 3.88062 8.10711 4.05833 7.97001 4.3376L6.3376 7.6964L2.69197 8.23462C2.38732 8.28032 2.13345 8.49358 2.03951 8.78553C1.94558 9.07749 2.02174 9.39992 2.24007 9.61572L4.88544 12.2332L4.26091 15.9322C4.21014 16.2368 4.33707 16.5466 4.58841 16.7268C4.83975 16.9071 5.17232 16.9299 5.4465 16.7852L8.70371 15.0462L11.9609 16.7852C12.2351 16.9299 12.5677 16.9096 12.819 16.7268C13.0703 16.544 13.1973 16.2368 13.1465 15.9322L12.5194 12.2332L15.1648 9.61572C15.3831 9.39992 15.4618 9.07749 15.3654 8.78553C15.2689 8.49358 15.0176 8.28032 14.7129 8.23462L11.0647 7.6964L9.43233 4.3376Z" fill="#FF6060"/>
</g>
</g>
</svg>
